<svg xmlns="http://www.w3.org/2000/svg" width="1200" height="675" viewBox="0 0 1200 675">
  <defs><linearGradient id="a" x1="0" y1="0" x2="1" y2="1"><stop stop-color="#251341"/><stop offset="1" stop-color="#17285a"/></linearGradient><radialGradient id="b"><stop stop-color="#9c8cff"/><stop offset="1" stop-color="#6052c8"/></radialGradient></defs><rect width="1200" height="675" fill="url(#a)"/><circle cx="1020" cy="95" r="255" fill="#b284ff" opacity=".12"/><circle cx="90" cy="655" r="240" fill="#5d9dff" opacity=".12"/>
  <text x="84" y="122" fill="#b9a8ff" font-family="Arial, sans-serif" font-size="29" font-weight="700" letter-spacing="4">HOW AI REMEMBERS</text><text x="84" y="224" fill="white" font-family="Arial, sans-serif" font-size="76" font-weight="700">什么是 AI 记忆？</text><text x="88" y="278" fill="#d3d0e1" font-family="Arial, sans-serif" font-size="31">聊天、任务与知识，AI 到底记住了什么</text>
  <g fill="none" stroke="#9f91ff" stroke-width="5" opacity=".8"><path d="M800 431L955 366L1050 471L916 555L800 431Z"/><path d="M800 431L916 555V430L955 366"/><path d="M916 430L1050 471"/></g><g fill="url(#b)"><circle cx="800" cy="431" r="23"/><circle cx="955" cy="366" r="23"/><circle cx="1050" cy="471" r="23"/><circle cx="916" cy="555" r="23"/><circle cx="916" cy="430" r="31"/></g><g fill="white" font-family="Arial, sans-serif" font-size="18" font-weight="700" text-anchor="middle"><text x="800" y="437">过去</text><text x="955" y="372">偏好</text><text x="1050" y="477">任务</text><text x="916" y="561">资料</text><text x="916" y="436">现在</text></g><text x="84" y="610" fill="#aaa7c8" font-family="Arial, sans-serif" font-size="24">AIBLOG · AI 工具与原理</text>
</svg>
