<svg xmlns="http://www.w3.org/2000/svg" width="1200" height="675" viewBox="0 0 1200 675"><defs><linearGradient id="g" x1="0" y1="0" x2="1" y2="1"><stop stop-color="#0f172a"/><stop offset=".52" stop-color="#155e75"/><stop offset="1" stop-color="#4c1d95"/></linearGradient><filter id="s"><feDropShadow dx="0" dy="12" stdDeviation="16" flood-opacity=".3"/></filter></defs><rect width="1200" height="675" fill="url(#g)"/><circle cx="1050" cy="110" r="200" fill="#67e8f9" opacity=".13"/><text x="85" y="160" fill="#a5f3fc" font-family="Arial,sans-serif" font-size="27" font-weight="700" letter-spacing="3">MODEL TRAINING</text><text x="85" y="236" fill="white" font-family="Arial,sans-serif" font-size="56" font-weight="700">什么是贝叶斯优化？</text><text x="85" y="292" fill="#cffafe" font-family="Arial,sans-serif" font-size="28">用更少试验找到更好的参数</text><g filter="url(#s)"><rect x="705" y="154" width="398" height="315" rx="24" fill="#0f172a" opacity=".9"/><path d="M750 410V207M750 410h305" stroke="#64748b" stroke-width="4"/><path d="M766 375c38-15 40-93 78-72 45 25 51 61 91-9 39-69 59 23 104-78" fill="none" stroke="#67e8f9" stroke-width="8" stroke-linecap="round"/><path d="M766 350c40-39 72-74 112-40 39 33 55-31 91-8 39 25 46-43 70-52" fill="none" stroke="#a78bfa" stroke-width="22" opacity=".24" stroke-linecap="round"/><circle cx="844" cy="303" r="12" fill="#fbbf24"/><circle cx="935" cy="294" r="12" fill="#fbbf24"/><circle cx="1039" cy="216" r="12" fill="#fbbf24"/><text x="815" y="447" fill="#cbd5e1" font-family="Arial,sans-serif" font-size="18">已完成试验</text></g><text x="85" y="610" fill="#a5f3fc" font-family="Arial,sans-serif" font-size="22" font-weight="700" letter-spacing="2">AIBLOG · AI 工具与原理</text></svg>
